<?xml version="1.0" encoding="UTF-8" standalone="no"?>
<svg
   xmlns:dc="http://purl.org/dc/elements/1.1/"
   xmlns:cc="http://creativecommons.org/ns#"
   xmlns:rdf="http://www.w3.org/1999/02/22-rdf-syntax-ns#"
   xmlns:svg="http://www.w3.org/2000/svg"
   xmlns="http://www.w3.org/2000/svg"
   xmlns:sodipodi="http://sodipodi.sourceforge.net/DTD/sodipodi-0.dtd"
   xmlns:inkscape="http://www.inkscape.org/namespaces/inkscape"
   viewBox="0 0 999.99994 931.50226"
   id="svg43"
   height="931.50226"
   width="1000"
   version="1.1"
   sodipodi:docname="Pizza_hut_logo.svg"
   inkscape:version="1.0.2 (e86c870879, 2021-01-15)">
  <sodipodi:namedview
     pagecolor="#ffffff"
     bordercolor="#666666"
     borderopacity="1"
     objecttolerance="10"
     gridtolerance="10"
     guidetolerance="10"
     inkscape:pageopacity="0"
     inkscape:pageshadow="2"
     inkscape:window-width="1366"
     inkscape:window-height="705"
     id="namedview26"
     showgrid="false"
     inkscape:zoom="0.5"
     inkscape:cx="531.92134"
     inkscape:cy="446.80265"
     inkscape:window-x="-8"
     inkscape:window-y="-8"
     inkscape:window-maximized="1"
     inkscape:current-layer="svg43" />
  <metadata
     id="metadata49">
    <rdf:RDF>
      <cc:Work
         rdf:about="">
        <dc:format>image/svg+xml</dc:format>
        <dc:type
           rdf:resource="http://purl.org/dc/dcmitype/StillImage" />
        <dc:title></dc:title>
      </cc:Work>
    </rdf:RDF>
  </metadata>
  <defs
     id="defs47" />
  <g
     id="g77"
     transform="matrix(2.5790874,0,0,2.5790874,0.00114476,-3.6545666)">
    <path
       id="rect49"
       style="display:inline;opacity:1;fill:#7d0006;fill-opacity:1;stroke-width:30.2362;stroke-linecap:round;stroke-linejoin:round;paint-order:stroke fill markers"
       d="M 0,1.4169999 H 387.73361 V 249.012 H 0 Z" />
    <path
       id="path24"
       style="fill:#cf001c;fill-rule:evenodd"
       d="m 350.4294,127.7535 c -0.2833,-0.8915 -1.2773,-1.7946 -2.0862,-2.3011 C 329.065,111.2381 290.8781,98.693 266.4274,88.2019 l -1.6022,-3.1552 8e-4,-0.0502 C 262.0562,74.3601 244.2005,49.6997 241.84,50.4427 211.0678,57.9981 191.0151,63.8336 160.7932,73.7658 l -4.7718,1.3454 c -1.4028,0.1796 -2.6183,1.058 -3.2423,2.3662 l -1.0391,1.9973 c -5.7512,13.129 -15.3493,23.7822 -20.2302,37.4077 -0.0629,0.0229 -0.6871,0.8016 -0.711,0.8012 -34.3,12.8613 -62.8438,34.2024 -91.5631,56.665 l -1.5073,1.1007 c -0.8508,0.6578 -1.4407,1.5818 -1.6997,2.6088 l -0.2834,1.2796 c -0.5334,2.3541 0.8072,4.7136 3.0135,5.497 l 3.5478,0.6444 c 61.309,-16.933 103.0835,-25.8204 164.0163,-34.5135 18.9101,-2.7614 37.4689,-4.6897 56.6269,-6.5295 20.0237,-1.9035 39.2794,-3.0031 59.6119,-4.1095 1.956,-0.0617 4.6444,-0.2672 6.6551,-0.665 4.2353,-0.8619 18.9213,-2.6619 21.4294,-9.2759 0.3891,-0.8949 0.1357,-1.5954 -0.2168,-2.6322 z" />
    <path
       id="path26"
       style="fill:#000200;fill-rule:evenodd"
       d="m 153.1144,81.1411 0.7301,-1.3082 -2.5678,1.4804 2.9201,-0.3934 c 27.9429,-6.4452 55.9321,-12.8394 82.9121,-22.5503 2.0868,-0.6583 3.3229,-2.784 2.7005,-4.9542 -0.6603,-2.1084 -2.8228,-3.3451 -4.931,-2.6977 -26.9782,6.1865 -53.5703,14.0661 -80.0675,22.239 l -4.2142,1.1044 c -1.1921,0.1831 -2.3185,0.8712 -2.8502,1.9383 l -0.8575,1.6658 c -5.38,11.1221 -12.6411,21.285 -16.9289,32.9773 -0.1664,0.5984 0.0743,1.1779 0.5968,1.4479 0.3349,0.1295 0.6718,0.1352 0.9767,-0.2812 0,0 13.9563,-20.8221 21.5808,-30.6681 z" />
    <path
       id="path28"
       style="fill:#000200;fill-rule:evenodd"
       d="m 250.4782,48.739 c 3.0471,13.283 5.2974,26.8938 7.8385,40.311 l 0.3324,1.6811 c 0.2601,0.9905 0.1252,2.4388 4.7047,4.6849 l 0.3092,0.1242 c 6.9559,3.5147 14.5809,4.2671 22.0928,6.7341 23.3998,7.7124 45.1998,16.277 67.8177,24.4192 1.992,0.849 4.2637,-0.118 5.1357,-2.0961 0.7896,-2.0365 -0.1694,-4.2707 -2.181,-5.0832 C 328.779,106.1846 297.5945,94.5371 267.5168,87.5978 l -0.4176,-0.126 c -5.4958,-12.5788 -8.217,-27.3283 -15.4895,-39.1787 -0.114,-0.2894 -0.4803,-0.477 -0.772,-0.3741 -0.3488,0.1889 -0.4627,0.5087 -0.3595,0.82 z" />
    <path
       id="path30"
       style="fill:#000200;fill-rule:evenodd"
       d="m 37.9248,187.2786 c 61.172,-17.4158 102.248,-26.2746 162.226,-35.1838 18.6728,-2.7887 37.018,-4.766 55.9967,-6.5898 19.8295,-1.9044 38.8423,-2.9585 58.971,-4.0451 1.9095,-0.136 3.6435,-0.5471 5.4891,-1.1426 3.8811,-1.1535 7.111,-4.9515 6.6584,-9.3606 -0.4175,-4.4195 -4.9443,-6.8835 -9.0458,-7.47 -1.7229,-0.2799 -2.8841,-0.3953 -4.5795,-0.2293 -39.1727,3.934 -77.4265,8.141 -115.7842,14.9942 -48.8966,8.6547 -97.4727,19.0767 -144.7885,34.3394 23.7504,-19.369 49.8765,-35.3055 76.1011,-50.8684 0.8845,-0.4047 1.3113,-1.5024 0.8583,-2.5041 -0.3535,-0.9425 -1.4267,-1.402 -2.3452,-0.9764 -33.9213,13.1902 -64.4559,34.4741 -92.8253,57.5561 l -1.4477,1.1606 c -0.8736,0.6678 -1.8327,1.4212 -2.2762,3.5347 l -0.0306,0.3972 c -0.4719,2.3765 0.7461,4.6997 3.2558,5.8087 0.0141,3e-4 1.0691,0.7034 3.5666,0.5792 z" />
    <g
       aria-label="TM"
       id="text34">
      <path
         d="m 270.41788,57.483517 v -5.682129 h -2.12256 v -0.760254 h 5.10644 v 0.760254 h -2.13134 v 5.682129 z"
         style="font-size:9px;font-family:Arial;fill:#000200"
         id="path80" />
      <path
         d="m 274.24991,57.483517 v -6.442383 h 1.2832 l 1.5249,4.561523 q 0.21094,0.637207 0.30762,0.953614 0.10986,-0.351563 0.34277,-1.032715 l 1.54249,-4.482422 h 1.14697 v 6.442383 h -0.82178 v -5.39209 l -1.87207,5.39209 h -0.76904 l -1.86328,-5.484375 v 5.484375 z"
         style="font-size:9px;font-family:Arial;fill:#000200"
         id="path82" />
    </g>
  </g>
  <g
     id="g99"
     transform="matrix(1.1831141,0,0,1.1831141,-458.7331,638.56913)">
    <path
       id="rect85"
       style="opacity:1;fill:#2a0002;fill-opacity:1;stroke-width:30.2362;stroke-linecap:round;stroke-linejoin:round;paint-order:stroke fill markers"
       d="M 387.73361,0 H 1232.9606 V 247.595 H 387.73361 Z" />
    <path
       id="path6"
       style="fill:#ffffff;fill-rule:evenodd"
       d="m 1158.6169,81.188202 c 2.4049,-5.4501 2.7937,-10.225 0.7825,-12.2497 -2.4063,-2.618 -7.9232,-1.9857 -10.5964,0.6341 -7.748,7.8359 -17.4907,16.6717 -23.7216,26.6193 -4.9758,0.2087 -9.4095,-0.1568 -14.0258,-0.6794 -2.0228,-0.2974 -3.2406,-0.4594 -6.0297,-1.7638 -2.6037,-0.7935 -5.62,-1.4537 -9.2766,0.8931 -2.7238,2.5334 -4.778,6.993198 -1.3737,10.908998 3.23,3.7201 11.3347,6.0065 18.5712,7.3055 -12.0861,20.755 -19.6599,40.5457 -21.0329,64.3757 0.5316,3.7422 -0.8009,7.4584 1.6414,7.9808 2.5017,0.6532 4.9912,-0.988 5.6151,-3.5691 13.5133,-24.1764 24.2113,-46.3932 39.6167,-69.9067 8.6851,-0.8524 16.9776,-2.5818 24.0209,-4.1391 16.9597,-3.7786 23.3358,-3.3055 39.2994,-8.966698 1.7111,-0.4329 2.8244,-1.818 2.4292,-3.1078 -0.2987,-1.262 -1.2016,-2.1026 -4.7522,-2.1046 -21.7858,-0.2107 -32.9022,1.5122 -50.65,1.7806 3.0928,-4.2793 7.2189,-8.6523 9.4825,-14.0112 z" />
    <path
       id="path8"
       style="fill:#ffffff;fill-rule:evenodd"
       d="m 1078.6261,121.205 c -3.0157,3.724 -15.116,15.6705 -17.3837,17.5236 -11.1004,9.0724 -20.4557,13.6998 -33.9883,18.5565 4.2444,-7.1606 4.3386,-9.5928 6.7288,-17.7847 1.4771,-5.0645 2.3399,-18.1836 -6.4672,-20.7913 -6.6878,-1.98 -13.7155,-1.334 -16.4868,1.3862 -0.9108,2.6207 0.6179,3.7895 1.6686,4.2154 7.2761,2.9487 0.9298,10.7902 -1.76,15.7349 -3.4774,6.3944 -7.0649,12.5974 -8.7588,20.781 -0.5166,2.4929 -0.1151,5.1486 -0.1151,5.1486 1.0292,8.4106 6.1381,11.6848 14.0122,12.2876 17.6921,1.3555 30.8849,-11.048 43.3446,-22.5675 -1.8305,9.7155 2.9002,21.2735 11.2096,28.0817 2.3344,1.5285 3.7645,2.5924 5.8247,1.3542 1.8928,-1.219 1.7665,-2.1522 1.7677,-5.101 -0.7256,-14.8302 2.5276,-24.2245 7.7291,-39.3951 1.5536,-4.5309 4.2022,-12.702 4.5354,-17.0767 0.1985,-2.6037 -0.296,-5.2465 -2.8038,-6.2629 -1.1721,-0.2819 -5.2296,-0.8168 -9.057,3.9095 z" />
    <path
       id="path10"
       style="fill:#ffffff;fill-rule:evenodd"
       d="m 689.0546,91.301302 c -1.0267,-0.6203 -2.2184,-0.8097 -2.2184,-0.8097 -4.0874,-0.5779 -6.5896,1.4816 -7.5049,4.6896 0,0 -1.0483,3.1115 0.6618,7.215498 0.2135,0.5129 0.5661,1.4428 2.4065,3.5096 0,0 2.0749,2.0822 5.103,2.7097 3.0119,0.6247 8.9265,1.8001 16.1767,1.4929 5.962,-0.2524 14.1178,-0.6845 22.7121,-1.2093 -10.9619,7.3211 -21.8624,14.0912 -32.4899,22.4289 -8.6978,6.823 -18.0111,12.3272 -24.3692,21.4337 -1.7677,2.532 -2.3951,6.5151 -2.6507,9.4686 0,0 -0.3237,5.8908 5.245,4.5724 2.5874,-0.6126 16.6104,-0.8681 16.6104,-0.8681 10.1993,-1.2354 25.206,2.8403 40.6289,2.1106 8.431,-0.3986 16.0045,-0.8466 24.4019,-6.1168 3.3354,-2.0938 5.8444,-4.1878 5.0862,-6.5858 -0.8051,-2.5439 -3.5175,-3.2777 -6.0701,-2.5545 -3.6119,1.0233 -8.3045,1.4369 -12.0682,1.4138 -10.8975,-0.0673 -21.6905,-3.1646 -34.0866,-5.5008 -0.5669,-0.1063 3.058,-2.6698 3.4919,-3.0226 11.702,-9.5168 20.9357,-16.9807 29.0699,-24.2458 8.5231,-7.6128 10.9793,-10.2013 14.5415,-14.8137 0,0 4.0694,-6.1649 1.9219,-11.106498 -1.7253,-3.9691 -9.4827,-7.3823 -22.8424,-6.2232 -30.8598,2.6774 -41.5317,2.6441 -41.5317,2.6441 0,0 -1.6012,-0.2554 -2.2256,-0.6326 z" />
    <path
       id="path12"
       style="fill:#ffffff;fill-rule:evenodd"
       d="m 852.7043,142.5487 c -0.2243,-2.4272 -3.9446,-4.053 -7.4988,-4.9736 -2.1807,-0.5648 -2.8197,-0.5023 -5.0884,-1.1578 -4.7623,-1.375 -5.8542,-3.2062 -6.3203,-5.2081 -0.718,-3.0861 -0.3255,-6.4165 1.0034,-9.4161 2.1386,-4.8252 4.0708,-9.2889 5.7949,-14.2745 1.0665,-3.0866 1.3883,-7.4742 -0.4002,-9.787198 -1.16,-1.4995 -2.5691,-2.3662 -4.8535,-1.8578 -1.4022,0.3127 -3.2744,1.3143 -4.4844,2.075 -24.1362,-9.7021 -69.2322,13.715598 -76.3939,38.301198 -2.7753,9.5288 0.1463,13.5662 0.1463,13.5662 11.4046,17.9376 37.8978,7.458 57.3984,-6.8439 5.2018,7.0247 13.2495,8.5753 20.2115,8.4232 4.8293,-0.1054 9.0928,-0.9113 11.7207,-1.7831 3.413,-1.1313 9.1623,-2.7518 8.7643,-7.0635 z m -39.0275,-24.1301 c -1.2339,2.9542 -3.2311,6.4117 -3.1742,9.2936 -10.6152,4.6287 -26.4424,12.3144 -29.3048,7.9433 -2.5787,-3.9358 14.4889,-22.6393 35.5491,-24.0638 -0.4426,2.4696 -2.1008,4.5043 -3.0701,6.8269 z" />
    <path
       id="path14"
       style="fill:#ffffff;fill-rule:evenodd"
       d="m 882.6037,126.1014 c 4.8911,2.8122 9.2787,4.225 14.2933,4.7878 -3.3116,7.6235 -8.3021,17.4229 -11.3861,26.9126 -2.4048,8.2861 -6.5723,25.5243 1.1733,28.835 14.1464,5.8808 22.0854,-10.1426 26.5559,-20.3651 4.7203,-10.7952 10.0884,-23.3478 15.0245,-34.3459 2.558,-0.3217 5.2574,-0.5557 7.945,-0.9907 12.2062,-1.9374 22.1547,-3.1944 32.2142,-5.7758 -4.3934,11.1439 -16.8987,38.916 -1.8739,43.3048 5.3191,1.5529 12.7846,-3.4518 15.9574,-8.1969 8.7724,-13.1173 11.418,-31.5095 17.3378,-44.4953 5.0224,-2.0457 11.6383,-4.798 16.427,-7.2577 2.1916,-1.1247 4.8028,-3.3067 5.0794,-4.6192 0.3772,-1.7953 -1.6341,-2.8964 -4.3287,-2.3922 -3.6199,0.6771 -8.5122,1.6471 -12.2033,1.7246 2.8053,-8.529598 10.8302,-25.222698 15.8429,-39.073198 0.577,-2.2237 2.858,-7.2781 -0.4079,-9.0649 -3.2646,-1.7891 -6.0828,-0.9717 -8.7211,1.8698 l -4.5982,3.6284 c -16.259,17.9076 -22.6603,31.609 -29.4791,45.792398 -12.8594,0.9284 -24.4221,0.6528 -37.007,1.316 4.7161,-9.217098 9.4038,-18.212098 14.8068,-27.538298 4.3851,-10.3766 13.3127,-22.6812 10.1584,-30.3812 -0.9144,-2.373 -3.3585,-3.0921 -5.3282,-2.0435 -18.1202,10.5419 -31.0716,31.7345 -42.6906,48.9151 -3.1121,4.583098 -4.6832,8.111098 -7.0866,11.910498 -8.3237,-0.1093 -16.8703,-0.45 -23.4932,0.4997 -5.7071,0.8174 -9.7332,2.5381 -10.668,6.4296 -0.9197,3.9758 2.2326,8.7064 6.456,10.6136 z" />
    <path
       id="path16"
       style="fill:#ffffff;fill-rule:evenodd"
       d="m 511.0534,48.242858 c -14.77662,-0.06375 -29.94549,2.325369 -35.64258,12.691406 -1.4601,3.2605 -1.53898,5.194547 -0.0547,8.060547 1.7884,3.3121 5.99678,2.877935 12.20508,2.115235 1.2718,-0.156265 2.87282,-0.259062 4.67382,-0.296875 -17.52311,14.816036 -31.58802,36.157539 -43.24023,56.531249 -9.0271,15.7839 -15.49479,27.91269 -21.99609,44.58789 -3.0502,7.8155 -6.24614,15.46051 -6.39844,24.69531 -0.067,3.5785 1.03836,7.57926 4.38086,8.16406 2.7486,0.376 6.85204,-1.19716 8.52344,-3.56836 0.83979,-1.31569 4.00847,-2.74193 4.79687,-4.01953 9.5478,-14.9044 16.26884,-24.88755 25.33984,-39.96875 6.0647,-9.9833 13.28838,-23.66441 18.95508,-34.54101 7.8116,-15.1474 18.48555,-28.62459 22.81055,-45.27539 0.45246,-1.787972 0.65709,-3.765041 0.35547,-5.5625 3.9722,0.661363 8.30164,1.673089 12.85742,3.1875 4.1654,1.0086 10.52319,5.220225 13.37109,8.703124 4.7327,6.008001 6.60073,12.86516 3.45313,19.693356 -7.4673,16.1041 -31.62618,25.68765 -49.11328,25.93946 -5.1334,1.82939 -6.17276,4.96541 -3.75196,6.57031 4.523,2.9992 20.10833,2.79088 22.57813,2.39258 15.4523,-2.4942 28.58539,-5.65608 41.27539,-16.76368 15.1356,-13.3405 21.50072,-31.247247 11.91601,-49.626947 -6.9826,-13.3691 -22.31469,-22.383997 -37.25,-23.341797 -3.24714,-0.208163 -6.63493,-0.352475 -10.04492,-0.367188 z" />
    <path
       id="path20"
       style="fill:#ffffff;fill-rule:evenodd"
       d="m 576.4318,106.4091 c -16.877,18.532 -41.8737,35.6623 -41.1499,63.5969 0.1301,4.2272 2.1113,8.3076 5.1096,12.0427 0.4622,0.6145 4.167,3.5135 7.1544,2.7529 2.9592,-0.7807 3.0168,-4.845 3.8038,-6.427 12.1125,-24.1933 38.4556,-43.6891 35.9032,-72.6394 -0.2587,-3.3219 -1.5605,-4.3518 -4.1907,-4.849 -4.0098,-0.7075 -5.3752,4.2284 -6.6304,5.5229 z" />
    <path
       id="path22"
       style="fill:#ffffff;fill-rule:evenodd"
       d="m 598.8264,88.107202 c 2.6546,-3.6529 16.2388,-13.6041 28.8687,-30.3497 0.9721,-1.4614 1.8923,-3.5099 0.6858,-5.0726 -1.1391,-1.4571 -3.4535,-1.4925 -5.3753,-1.0796 -13.059,1.384 -33.166,8.4174 -41.3687,24.6125 -1.8342,3.5817 -2.2413,11.2263 2.5336,14.2166 4.672,3.1803 11.3263,2.0769 14.6559,-2.3272 z" />
    <path
       id="path36"
       style="fill:none;stroke:#ffffff;stroke-width:0.9921;stroke-linecap:butt;stroke-linejoin:miter;stroke-dasharray:none"
       d="m 1184.9781,57.810102 a 5.0158,5.0158 0 0 1 5.0158,5.0157 5.0158,5.0158 0 1 1 -5.0158,-5.0157 z" />
    <path
       id="path38"
       style="fill:#ffffff;fill-rule:evenodd"
       d="m 1182.6499,65.414802 v -5.1786 h 2.2017 c 0.5536,0 0.955,0.0471 1.2058,0.1401 0.2506,0.0927 0.4521,0.2579 0.6027,0.4955 0.1508,0.2386 0.2256,0.5099 0.2256,0.8161 0,0.3883 -0.1145,0.7103 -0.3424,0.9634 -0.2279,0.252 -0.5703,0.4125 -1.025,0.4774 0.2267,0.1327 0.4135,0.2775 0.5607,0.4354 0.1471,0.1579 0.3449,0.4377 0.5944,0.8405 l 0.633,1.0102 h -1.2504 l -0.756,-1.1273 c -0.2687,-0.4028 -0.4521,-0.6559 -0.5508,-0.7608 -0.099,-0.1049 -0.2038,-0.176 -0.3149,-0.2157 -0.1108,-0.0386 -0.2857,-0.0581 -0.5267,-0.0581 h -0.2112 v 2.1619 z m 1.0465,-2.9888 h 0.7731 c 0.5014,0 0.8149,-0.0207 0.9405,-0.0629 0.1241,-0.042 0.2217,-0.1157 0.2928,-0.2194 0.07,-0.1038 0.106,-0.2328 0.106,-0.3881 0,-0.1749 -0.047,-0.3149 -0.1397,-0.4221 -0.093,-0.1074 -0.2242,-0.1749 -0.3943,-0.2038 -0.085,-0.0108 -0.3388,-0.0167 -0.7631,-0.0167 h -0.8153 z" />
    <path
       id="path40"
       style="fill:#ffffff;fill-rule:evenodd"
       d="m 624.802,123.0294 c -6.6849,-0.3867 -13.9806,-0.6748 -20.0246,-2.6246 -7.2809,-3.6978 -8.2353,-8.5558 -6.2436,-11.9602 0.9608,-1.6436 2.1114,-2.2863 4.0573,-2.7859 1.9116,-0.4913 7.2069,0.162 9.102,0.2741 15.1134,0.8959 34.4709,0.4764 49.9335,0.6557 8.8091,0.1021 9.6356,0.4986 10.9117,4.8965 0,0 1.0333,3.9134 -1.4192,8.3382 -1.6581,2.996 -2.6838,4.8611 -5.0209,7.6631 -6.9147,8.2894 -17.2308,17.6841 -23.6193,22.927 -6.3292,5.1783 -17.4065,13.8373 -22.9024,19.3447 6.6737,-0.5088 13.7957,-0.2348 21.4723,-0.0779 13.467,0.274 38.7482,8.0228 41.3575,8.3832 13.5566,2.1287 24.9719,2.2768 36.7786,-1.5588 2.0178,-0.8826 5.1712,0.4753 6.105,2.313 0.9037,1.8173 -0.9142,4.9996 -2.7793,5.867 -9.3494,6.4988 -20.5773,8.5451 -32.1391,8.7512 -6.2366,0.1105 -11.5326,-0.172 -18.3258,-0.7836 -8.3476,-0.7508 -33.0744,-4.9213 -53.4467,-3.9257 -6.2637,0.3063 -17.235,1.1223 -28.4823,3.2678 -8.1508,1.5542 -12.2892,0.4456 -14.1368,-4.2573 -1.6152,-4.4916 1.332,-10.9294 4.1122,-14.5388 5.7357,-7.4399 14.2536,-13.5835 21.2583,-18.8003 l 13.18,-10.0756 c 10.5115,-7.9711 20.1819,-15.817 29.5925,-22.7835 -2.6687,0.4694 -16.9532,1.6281 -19.3209,1.4907 z" />
  </g>
</svg>
